<svg width="208" height="18" viewBox="0 0 175 38" fill="none" xmlns="http://www.w3.org/2000/svg">
<path d="M17.928 37L10.248 23.656H6.072V37H0.6V3.64H12.12C14.68 3.64 16.84 4.088 18.6 4.984C20.392 5.88 21.72 7.08 22.584 8.584C23.48 10.088 23.928 11.768 23.928 13.624C23.928 15.8 23.288 17.784 22.008 19.576C20.76 21.336 18.824 22.536 16.2 23.176L24.456 37H17.928ZM6.072 19.288H12.12C14.168 19.288 15.704 18.776 16.728 17.752C17.784 16.728 18.312 15.352 18.312 13.624C18.312 11.896 17.8 10.552 16.776 9.592C15.752 8.6 14.2 8.104 12.12 8.104H6.072V19.288ZM55.1681 23.128C55.1681 24.12 55.1041 25.016 54.9761 25.816H34.7681C34.9281 27.928 35.7121 29.624 37.1201 30.904C38.5281 32.184 40.2561 32.824 42.3041 32.824C45.2481 32.824 47.3281 31.592 48.5441 29.128H54.4481C53.6481 31.56 52.1921 33.56 50.0801 35.128C48.0001 36.664 45.4081 37.432 42.3041 37.432C39.7761 37.432 37.5041 36.872 35.4881 35.752C33.5041 34.6 31.9361 33 30.7841 30.952C29.6641 28.872 29.1041 26.472 29.1041 23.752C29.1041 21.032 29.6481 18.648 30.7361 16.6C31.8561 14.52 33.4081 12.92 35.3921 11.8C37.4081 10.68 39.7121 10.12 42.3041 10.12C44.8001 10.12 47.0241 10.664 48.9761 11.752C50.9281 12.84 52.4481 14.376 53.5361 16.36C54.6241 18.312 55.1681 20.568 55.1681 23.128ZM49.4561 21.4C49.4241 19.384 48.7041 17.768 47.2961 16.552C45.8881 15.336 44.1441 14.728 42.0641 14.728C40.1761 14.728 38.5601 15.336 37.2161 16.552C35.8721 17.736 35.0721 19.352 34.8161 21.4H49.4561ZM58.7291 23.752C58.7291 21.032 59.2731 18.648 60.3611 16.6C61.4811 14.52 63.0171 12.92 64.9691 11.8C66.9211 10.68 69.1611 10.12 71.6891 10.12C74.8891 10.12 77.5291 10.888 79.6091 12.424C81.7211 13.928 83.1451 16.088 83.8811 18.904H77.9771C77.4971 17.592 76.7291 16.568 75.6731 15.832C74.6171 15.096 73.2891 14.728 71.6891 14.728C69.4491 14.728 67.6571 15.528 66.3131 17.128C65.0011 18.696 64.3451 20.904 64.3451 23.752C64.3451 26.6 65.0011 28.824 66.3131 30.424C67.6571 32.024 69.4491 32.824 71.6891 32.824C74.8571 32.824 76.9531 31.432 77.9771 28.648H83.8811C83.1131 31.336 81.6731 33.48 79.5611 35.08C77.4491 36.648 74.8251 37.432 71.6891 37.432C69.1611 37.432 66.9211 36.872 64.9691 35.752C63.0171 34.6 61.4811 33 60.3611 30.952C59.2731 28.872 58.7291 26.472 58.7291 23.752ZM113.574 23.128C113.574 24.12 113.51 25.016 113.382 25.816H93.1744C93.3344 27.928 94.1184 29.624 95.5264 30.904C96.9344 32.184 98.6624 32.824 100.71 32.824C103.654 32.824 105.734 31.592 106.95 29.128H112.854C112.054 31.56 110.598 33.56 108.486 35.128C106.406 36.664 103.814 37.432 100.71 37.432C98.1824 37.432 95.9104 36.872 93.8944 35.752C91.9104 34.6 90.3424 33 89.1904 30.952C88.0704 28.872 87.5104 26.472 87.5104 23.752C87.5104 21.032 88.0544 18.648 89.1424 16.6C90.2624 14.52 91.8144 12.92 93.7984 11.8C95.8144 10.68 98.1184 10.12 100.71 10.12C103.206 10.12 105.43 10.664 107.382 11.752C109.334 12.84 110.854 14.376 111.942 16.36C113.03 18.312 113.574 20.568 113.574 23.128ZM107.862 21.4C107.83 19.384 107.11 17.768 105.702 16.552C104.294 15.336 102.55 14.728 100.47 14.728C98.5824 14.728 96.9664 15.336 95.6224 16.552C94.2784 17.736 93.4784 19.352 93.2224 21.4H107.862ZM121.743 7.048C120.751 7.048 119.919 6.712 119.247 6.04C118.575 5.368 118.239 4.536 118.239 3.544C118.239 2.552 118.575 1.72 119.247 1.048C119.919 0.375998 120.751 0.0399981 121.743 0.0399981C122.703 0.0399981 123.519 0.375998 124.191 1.048C124.863 1.72 125.199 2.552 125.199 3.544C125.199 4.536 124.863 5.368 124.191 6.04C123.519 6.712 122.703 7.048 121.743 7.048ZM124.431 10.552V37H118.959V10.552H124.431ZM138 15.016V29.656C138 30.648 138.224 31.368 138.672 31.816C139.152 32.232 139.952 32.44 141.072 32.44H144.432V37H140.112C137.648 37 135.76 36.424 134.448 35.272C133.136 34.12 132.48 32.248 132.48 29.656V15.016H129.36V10.552H132.48V3.976H138V10.552H144.432V15.016H138ZM147.651 23.656C147.651 21 148.195 18.648 149.283 16.6C150.403 14.552 151.907 12.968 153.795 11.848C155.715 10.696 157.827 10.12 160.131 10.12C162.211 10.12 164.019 10.536 165.555 11.368C167.123 12.168 168.371 13.176 169.299 14.392V10.552H174.819V37H169.299V33.064C168.371 34.312 167.107 35.352 165.507 36.184C163.907 37.016 162.083 37.432 160.035 37.432C157.763 37.432 155.683 36.856 153.795 35.704C151.907 34.52 150.403 32.888 149.283 30.808C148.195 28.696 147.651 26.312 147.651 23.656ZM169.299 23.752C169.299 21.928 168.915 20.344 168.147 19C167.411 17.656 166.435 16.632 165.219 15.928C164.003 15.224 162.691 14.872 161.283 14.872C159.875 14.872 158.563 15.224 157.347 15.928C156.131 16.6 155.139 17.608 154.371 18.952C153.635 20.264 153.267 21.832 153.267 23.656C153.267 25.48 153.635 27.08 154.371 28.456C155.139 29.832 156.131 30.888 157.347 31.624C158.595 32.328 159.907 32.68 161.283 32.68C162.691 32.68 164.003 32.328 165.219 31.624C166.435 30.92 167.411 29.896 168.147 28.552C168.915 27.176 169.299 25.576 169.299 23.752Z" fill="url(#paint0_linear_15_49)"/>
<defs>
<linearGradient id="paint0_linear_15_49" x1="108.477" y1="-23.5349" x2="96.7759" y2="21.1437" gradientUnits="userSpaceOnUse">
<stop stop-color="#091C05"/>
<stop stop-color="#703B1D" stop-opacity="0"/>
<stop offset="0.308011" stop-color="#6C2700" stop-opacity="0.31"/>
<stop offset="0.645273" stop-color="#6F391B" stop-opacity="0.944794"/>
</linearGradient>
</defs>
</svg>
